<?xml version="1.0" encoding="utf-8"?>
<!-- Generator: Adobe Illustrator 15.0.0, SVG Export Plug-In . SVG Version: 6.00 Build 0)  -->
<!DOCTYPE svg PUBLIC "-//W3C//DTD SVG 1.1//EN" "http://www.w3.org/Graphics/SVG/1.1/DTD/svg11.dtd">
<svg version="1.1" id="レイヤー_1" xmlns="http://www.w3.org/2000/svg" xmlns:xlink="http://www.w3.org/1999/xlink" x="0px"
	 y="0px" width="360px" height="70px" viewBox="0 0 360 70" enable-background="new 0 0 360 70" xml:space="preserve">
<g>
	<path fill="#135D96" d="M67.633,24.542c0,6.768-5.487,12.263-12.256,12.263c-6.771,0-12.258-5.495-12.258-12.263
		c0-6.769,5.487-12.26,12.258-12.26C62.146,12.282,67.633,17.773,67.633,24.542"/>
	<path fill="#135D96" d="M35.373,65.525h-0.049c-3.119-0.396-7.938-1.295-12.378-3.258c-7.697-3.41-9.721-6.682-10.693-10.396
		c-1.188-4.571,0.059-8.884,0.822-10.87c0.011-0.019,0.015-0.026,0.017-0.043c0.004-0.015,0.007-0.03,0.007-0.043
		c0-0.106-0.08-0.188-0.189-0.188c-0.048,0-0.09,0.02-0.123,0.051c-0.018,0.012-0.023,0.026-0.037,0.036
		c-0.588,0.704-1.447,1.729-2.375,2.897c-0.835,1.05-1.154,1.459-3.149,4.87C6.146,50.427,5,53.02,5,56.299
		c0,2.24,0.934,5.074,4.967,6.971c3.246,1.529,6.754,1.707,10.913,2.131c4.85,0.502,10.791,0.537,14.441,0.502h0.011
		c0.102-0.006,0.181-0.084,0.181-0.189C35.513,65.625,35.455,65.549,35.373,65.525"/>
	<path fill="#135D96" d="M80.226,63.85c-0.011,0-0.026,0-0.039-0.002c-4.167-0.131-13.378-0.994-24.59-5.6
		c-6.691-2.752-11.474-5.918-13.906-7.79c-2.185-1.681-4.492-4.351-5.783-6.532c-0.269-0.451-1.421-2.542-2.088-4.93
		c-2.746-9.725,4.453-26.896,6.666-31.802c0-0.014,0.006-0.026,0.013-0.039c0.007-0.019,0.011-0.039,0.011-0.062
		c0-0.098-0.082-0.187-0.188-0.187c-0.051,0-0.092,0.021-0.127,0.048c-0.013,0.016-0.028,0.031-0.038,0.055
		c-0.984,1.21-2.958,3.69-6.903,8.715c-6.352,8.066-17.702,23.588-15.86,35.148c0.572,3.582,3.686,8.287,10.802,11.205
		c6.989,2.871,17.008,4.848,46.652,2.752c1.875-0.133,3.859-0.393,5.353-0.609c0.016-0.002,0.033-0.002,0.051-0.006
		c0.077-0.021,0.138-0.092,0.138-0.178C80.388,63.943,80.317,63.865,80.226,63.85 M28.928,58.422c-4.164,0-7.544-3.379-7.544-7.542
		c0-4.164,3.38-7.543,7.544-7.543c4.168,0,7.544,3.379,7.544,7.543C36.472,55.043,33.096,58.422,28.928,58.422"/>
	<path fill="#135D96" d="M99.385,18.96c-1.921,5.734-5.094,11.442-8.271,14.893l-0.092,0.098l0.076,0.112
		c0.339,0.498,0.913,1.521,1.152,2.063l0.106,0.245l0.174-0.201c1.385-1.585,2.646-3.284,3.753-5.062V49.92h2.506V26.678
		c1.131-2.175,1.882-4.029,2.812-6.411c0.137-0.361,0.199-0.486,0.205-0.491l0.086-0.18l-2.452-0.797L99.385,18.96z"/>
	<polygon fill="#135D96" points="119.119,27.737 119.119,44.463 113.042,44.463 113.042,19.818 110.508,19.627 110.508,44.463 
		104.734,44.463 104.734,27.916 102.266,27.737 102.266,49.553 104.734,49.553 104.734,46.897 119.119,46.897 119.119,49.423 
		121.614,49.423 121.614,27.916 	"/>
	<path fill="#135D96" d="M129.497,49.819h2.57v-1.426h16.206v1.294h2.666v-14.33h-21.442V49.819z M148.273,45.86h-16.206v-8.007
		h16.206V45.86z"/>
	<path fill="#135D96" d="M155.93,32.443c-2.002-3.004-6.368-7.018-9.574-9.48l-0.104-0.079l-2.005,1.578l0.173,0.135
		c1.538,1.173,3.178,2.629,4.76,4.227l-15.959,0.443c2.024-2.992,4.104-6.628,5.399-9.074c0.216-0.394,0.257-0.531,0.264-0.549
		l0.051-0.149l-2.61-1.029l-0.066,0.15c-1.454,3.31-3.931,7.705-6.047,10.729l-5.763,0.102l0.863,2.603l0.114,0.008
		c0,0,0.456,0.02,0.621,0.02h0.004c5.064-0.166,15.588-0.513,25.346-0.929c0.949,1.052,1.765,2.088,2.354,3.011l0.103,0.155
		l2.164-1.742L155.93,32.443z"/>
	<path fill="#135D96" d="M179.313,39.21h-13.2v9.183h2.368v-1.764h10.832V39.21z M176.949,44.598h-8.466v-3.351h8.466V44.598z"/>
	<path fill="#135D96" d="M163.523,33.072h18.417v-7.216h-18.417V33.072z M166.023,27.89h13.317v3.147h-13.317V27.89z"/>
	<polygon fill="#135D96" points="173.834,21.867 173.834,18.781 171.232,18.564 171.232,21.867 157.842,21.867 157.842,24.199 
		187.554,24.199 187.554,21.867 	"/>
	<path fill="#135D96" d="M159.436,49.819h2.529V37.26h21.634v9.566c0,0.507,0,0.527-1.929,0.527c-0.872,0-2.09-0.028-3.386-0.061
		l-0.371-0.015l0.115,0.254c0.265,0.557,0.61,1.438,0.718,2.079l0.025,0.143h0.142c2.962,0,4.746,0,5.81-0.377
		c1.194-0.422,1.439-1.311,1.439-2.517V34.962h-26.727V49.819z"/>
	<path fill="#135D96" d="M198.024,41.465l-0.106-0.064l-1.832,1.561l0.198,0.123c2.296,1.39,4.769,3.477,5.87,4.974l0.11,0.153
		l1.884-1.698l-0.092-0.125C202.735,44.678,200.006,42.633,198.024,41.465"/>
	<path fill="#135D96" d="M221.066,21.566h-11.647c0.31-0.588,0.583-1.207,0.835-1.787c0.087-0.201,0.209-0.475,0.209-0.475
		l0.088-0.178l-2.517-0.717l-0.055,0.143c-0.634,1.735-1.599,3.445-2.729,4.925v-1.911h-9.001c0.279-0.561,0.557-1.155,0.784-1.766
		c0.087-0.242,0.153-0.481,0.153-0.481l0.045-0.156l-2.356-0.762l-0.055,0.157c-1.098,3.128-3.019,6.309-4.875,8.107l-0.168,0.159
		l0.2,0.109c0.523,0.298,1.269,0.815,1.7,1.178l0.122,0.103l0.107-0.11c1.054-1.084,2.138-2.557,3.141-4.271h1.252
		c0.631,1.307,1.187,2.835,1.368,3.748l0.039,0.193l2.363-0.812l-0.045-0.153c-0.232-0.836-0.669-1.979-1.129-2.977h6.087
		c-0.748,0.937-1.56,1.762-2.397,2.427l-0.189,0.147l0.199,0.122c0.477,0.31,1.174,0.795,1.583,1.137v1.112h-10.631v2.267h10.631
		v2.883h-14.023v2.3h20.805v2.75h-19.208v2.302h19.208v5.614c0,0.499,0,0.526-1.926,0.526c-0.756,0-1.78-0.024-2.966-0.058
		l-0.758-0.014l0.118,0.249c0.274,0.586,0.687,1.466,0.783,2.076l0.022,0.146h0.144c5.546,0,7.215,0,7.215-2.859v-5.681h6.081
		v-2.302h-6.081l-0.01-2.75h7.422v-2.3h-14.191v-2.883h10.899v-2.267h-10.899v-2.412l-0.735-0.055
		c0.73-0.777,1.39-1.613,1.984-2.479h2.385c1.029,1.26,1.998,2.884,2.386,3.975l0.057,0.175l2.248-1.006l-0.056-0.151
		c-0.314-0.761-0.941-1.812-1.787-2.992h7.771V21.566z"/>
	<path fill="#135D96" d="M273.757,32.841h10.102V46.46c0,0.684,0,0.694-2.195,0.694c-1.004,0-2.384,0-3.81-0.065l-0.281-0.015
		l0.125,0.26c0.323,0.653,0.718,1.675,0.811,2.277l0.023,0.143h0.143c6.391,0,7.744-0.111,7.744-3.294V20.236h-12.661V32.841z
		 M276.252,22.473h7.606v2.851h-7.606V22.473z M283.858,30.607h-7.606v-3.185h7.606V30.607z"/>
	<path fill="#135D96" d="M258.568,49.819h2.532V32.807h9.702V20.236h-12.234V49.819z M268.337,30.576h-7.236v-3.153h7.236V30.576z
		 M268.337,25.321h-7.236v-2.849h7.236V25.321z"/>
	<path fill="#135D96" d="M293.969,26.626h23.618v5.349h2.53v-7.714h-5.216c0.976-1.135,2.065-2.54,2.957-3.817
		c0.205-0.278,0.288-0.504,0.295-0.515l0.051-0.148l-0.137-0.064c-0.057-0.027-1.397-0.665-2.223-0.9l-0.129-0.035l-0.062,0.114
		c-0.898,1.581-2.504,3.873-3.756,5.366h-4.915l0.544-0.237l-0.042-0.145c-0.426-1.403-1.624-3.659-2.853-5.366l-0.077-0.104
		l-2.24,0.851l0.118,0.176c1.027,1.544,2.023,3.446,2.522,4.825h-6.109l0.492-0.257l-0.068-0.143
		c-0.573-1.273-1.968-3.247-3.386-4.8l-0.084-0.093l-2.172,1.048l0.141,0.167c1.089,1.282,2.192,2.884,2.81,4.077h-5.08v7.714h2.471
		V26.626z"/>
	<path fill="#135D96" d="M306.932,37.294c2.883-1.439,6.001-3.564,7.979-5.431c0.252-0.055,0.458-0.187,0.562-0.371l0.087-0.141
		l-1.938-1.229l-0.45,0.148h-16.959v2.337h14.152c-1.289,1.026-2.858,2.035-4.374,2.812l-1.698-0.112v2.908H290.67v2.431h13.623
		v6.278c0,0.529,0,0.562-1.994,0.562c-1.104,0-2.612-0.035-4.246-0.099l-0.311-0.013l0.162,0.265
		c0.343,0.591,0.779,1.519,0.948,2.152l0.031,0.127h0.133c6.077,0,7.915,0,7.915-2.994v-6.278h13.787v-2.431h-13.787V37.294z"/>
	<path fill="#135D96" d="M334.658,34.001l-0.168,0.142l0.176,0.126c0.47,0.348,1.174,0.942,1.539,1.338l0.111,0.122l0.123-0.109
		c2.425-2.127,4.48-5.144,5.586-7.257c0.152-0.283,0.223-0.457,0.225-0.463l0.058-0.158l-2.338-0.94l-0.067,0.148
		C338.753,29.51,336.697,32.28,334.658,34.001"/>
	<path fill="#135D96" d="M348.863,26.713l-2.077,1.163l0.157,0.161c2.271,2.298,4.602,5.366,5.546,7.298l0.084,0.17l2.161-1.312
		l-0.073-0.141c-1.089-2.149-3.654-5.189-5.71-7.252L348.863,26.713z"/>
	<path fill="#135D96" d="M334.104,39.178l1.539-2.085l-0.069-0.096c-0.593-0.906-3.349-4.858-4.42-6.183v-2.496h4.221V26.03h18.874
		v-2.402h-8.337v-4.891l-2.54-0.171v5.062h-8.067v2.262h-4.15v-7.13l-2.432-0.196v7.326h-5.089v2.43h4.782
		c-1.101,4.794-3.302,10.038-5.38,12.822l-0.079,0.106l0.082,0.102c0.406,0.502,0.954,1.346,1.175,1.92l0.109,0.288l0.187-0.251
		c1.468-2.017,2.98-5.281,4.213-9.065v15.514h2.432V34.121c1.5,2.385,2.427,3.959,2.829,4.803L334.104,39.178z"/>
	<path fill="#135D96" d="M354.627,47.596c-3.125-1.125-5.951-3.066-8.403-5.764c1.669-2.189,3.004-4.805,3.965-7.783
		c0.103-0.316,0.163-0.525,0.163-0.525l0.048-0.169l-2.528-0.589l-0.046,0.157c-0.67,2.526-1.756,4.859-3.217,6.933
		c-1.517-2.062-2.758-4.402-3.599-6.776l-0.055-0.15l-2.281,0.656l0.057,0.169c1.038,2.959,2.473,5.699,4.26,8.141
		c-2.35,2.592-5.34,4.589-8.876,5.935l-0.225,0.087l0.154,0.181c0.335,0.401,0.937,1.221,1.171,1.725l0.065,0.143l0.153-0.057
		c3.566-1.406,6.635-3.452,9.138-6.086c2.438,2.715,5.257,4.747,8.376,6.052l0.145,0.06l0.068-0.134
		c0.327-0.604,1.03-1.451,1.53-1.92l0.194-0.19L354.627,47.596z"/>
	<path fill="#135D96" d="M246.709,37.058h4.355V25.786h-10.668v-2.116h13.396v-2.269h-13.396v-2.604l-2.565-0.166v2.771h-13.127
		v2.269h13.127v2.116h-10.335v11.272h16.683v2.42H223.94v2.3h20.238v5.282c0,0.466,0,0.492-1.989,0.492
		c-0.811,0-1.894-0.021-3.043-0.051l-0.794-0.02l0.128,0.252c0.368,0.734,0.639,1.462,0.717,1.943l0.021,0.142h0.145
		c3.001,0,4.812,0,5.863-0.34c1.243-0.385,1.482-1.166,1.482-2.387v-5.314h7.712v-2.3h-7.712V37.058z M237.831,35.025h-7.871v-2.649
		h7.871V35.025z M237.831,30.407h-7.871v-2.584h7.871V30.407z M248.533,35.025h-8.135v-2.649h8.135V35.025z M248.533,30.407h-8.135
		v-2.584h8.135V30.407z"/>
	<path fill="#135D96" d="M231.048,41.966l-0.096-0.067l-1.948,1.442l0.196,0.135c2.056,1.407,4.286,3.404,5.31,4.747l0.103,0.139
		l2.037-1.61l-0.109-0.134C235.443,45.269,233.185,43.354,231.048,41.966"/>
	<path fill="#135D96" d="M101.403,3.445c-0.055,0.063-0.064,0.073-0.141,0.169c-0.468,0.598-0.795,0.947-1.34,1.436
		c0.504,1.21,0.713,2.52,0.713,4.316c0,1.477-0.146,2.413-0.447,2.807c-0.189,0.232-0.425,0.33-0.83,0.33
		c-0.305,0-0.656-0.053-1.114-0.171c-0.013-0.275-0.033-0.445-0.104-0.722c0.488,0.169,0.899,0.265,1.197,0.265
		c0.161,0,0.288-0.083,0.365-0.223c0.191-0.349,0.282-1.2,0.282-2.415c0-0.604-0.021-1.05-0.062-1.509
		c-0.521,0.802-1.042,1.34-1.999,2.052c-0.105-0.242-0.224-0.425-0.37-0.561c1.021-0.672,1.637-1.308,2.241-2.327
		c-0.093-0.514-0.225-0.96-0.394-1.404c-0.488,0.379-0.851,0.626-1.496,0.995c-0.118-0.231-0.225-0.404-0.384-0.57
		c0.723-0.352,1.053-0.552,1.627-1.001c-0.318-0.617-0.574-0.956-1.022-1.33l0.565-0.417c0.03,0.047,0.106,0.142,0.371,0.449
		c0.191,0.246,0.416,0.562,0.585,0.862c0.563-0.521,0.965-1.021,1.171-1.466L101.403,3.445z M105.77,5.031
		c0.407,0,0.672-0.015,1.011-0.055c-0.032,0.286-0.041,0.554-0.041,1.011v1.925c0,0.498,0.009,0.771,0.041,1.052
		c-0.297-0.032-0.54-0.042-1.029-0.042h-1.448v2.358c0.992-0.138,1.149-0.159,1.874-0.307c-0.256-0.565-0.354-0.757-0.671-1.308
		l0.597-0.204c0.573,0.979,0.798,1.468,1.275,2.785l-0.63,0.321c-0.155-0.533-0.232-0.744-0.36-1.054
		c-1.423,0.288-2.511,0.446-4.764,0.722c-0.203,0.023-0.35,0.046-0.573,0.096l-0.159-0.764c0.114,0.011,0.178,0.011,0.266,0.011
		c0.353,0,1.53-0.106,2.5-0.226V8.921h-1.299c-0.446,0-0.722,0.01-1.02,0.042c0.019-0.319,0.03-0.595,0.03-1.034V6.042
		c0-0.48-0.012-0.759-0.043-1.065c0.342,0.04,0.627,0.055,1.04,0.055h1.291V4.117c0-0.448-0.013-0.662-0.076-1.001h0.799
		c-0.055,0.296-0.077,0.542-0.077,0.986v0.929H105.77z M102.008,8.314h1.649V5.633h-1.649V8.314z M104.303,8.314h1.788V5.633h-1.788
		V8.314z"/>
	<path fill="#135D96" d="M113.57,11.206c0.819-1.714,1.627-4.081,1.785-5.273l0.821,0.278c-0.108,0.252-0.108,0.252-0.425,1.284
		c-0.406,1.308-0.882,2.564-1.426,3.711h2.454c0.49,0,0.851-0.021,1.172-0.063v0.808c-0.343-0.054-0.651-0.075-1.172-0.075h-7.077
		c-0.537,0-0.884,0.021-1.225,0.075v-0.808c0.341,0.042,0.699,0.063,1.225,0.063H113.57z M112.775,3.901
		c0-0.308-0.022-0.544-0.076-0.871h0.84c-0.055,0.309-0.074,0.574-0.074,0.86v0.869h2.84c0.53,0,0.892-0.019,1.222-0.072v0.801
		c-0.353-0.047-0.714-0.064-1.222-0.064h-6.23c-0.488,0-0.84,0.018-1.181,0.064V4.687c0.298,0.054,0.646,0.072,1.181,0.072h2.701
		V3.901z M111.021,6.05c0.508,1.39,0.803,2.454,1.147,4.198l-0.691,0.268c-0.277-1.585-0.65-2.935-1.159-4.215L111.021,6.05z"/>
	<path fill="#135D96" d="M120.437,8.875c0-0.451,0.009-0.762,0.031-1.275c-0.384,0.491-0.692,0.789-1.215,1.192
		c-0.126-0.262-0.244-0.434-0.413-0.606c0.829-0.562,1.508-1.233,2.148-2.095c0.243-0.33,0.403-0.627,0.51-0.913l0.657,0.37
		c-0.128,0.159-0.157,0.213-0.316,0.461c-0.225,0.362-0.414,0.604-0.712,0.956v4.292c0,0.577,0.022,1.003,0.073,1.299h-0.839
		c0.053-0.296,0.075-0.731,0.075-1.299V8.875z M121.901,3.338c-0.075,0.073-0.098,0.106-0.193,0.234
		c-0.636,0.872-1.4,1.614-2.357,2.308c-0.161-0.234-0.278-0.361-0.478-0.521c0.595-0.384,0.979-0.69,1.402-1.128
		c0.531-0.531,0.797-0.905,0.966-1.298L121.901,3.338z M123.444,6.87c-0.502,0-0.924,0.022-1.18,0.062V6.188
		c0.256,0.041,0.669,0.063,1.18,0.063h3.732c0.537,0,0.922-0.022,1.168-0.063v0.744c-0.275-0.04-0.667-0.062-1.159-0.062h-0.605
		v4.654c0,0.681-0.255,0.862-1.193,0.862c-0.339,0-0.835-0.023-1.297-0.055c-0.03-0.298-0.073-0.489-0.169-0.73
		c0.607,0.081,1.063,0.127,1.498,0.127c0.362,0,0.449-0.046,0.449-0.256V6.87H123.444z M122.7,3.518
		c0.286,0.041,0.626,0.063,1.106,0.063h2.975c0.48,0,0.798-0.022,1.095-0.063v0.745c-0.316-0.041-0.669-0.064-1.095-0.064h-2.975
		c-0.428,0-0.787,0.023-1.106,0.064V3.518z"/>
	<path fill="#135D96" d="M139.005,5.53c-0.246-0.042-0.444-0.055-0.979-0.055c-0.128,1.265-0.275,1.914-0.639,2.807
		c-0.212,0.533-0.458,0.99-0.775,1.445c0.767,0.958,1.551,1.607,2.582,2.116c-0.212,0.224-0.317,0.382-0.444,0.66
		c-1.064-0.638-1.871-1.351-2.544-2.255c-0.786,0.913-1.54,1.499-2.924,2.255c-0.147-0.268-0.272-0.429-0.477-0.598
		c0.681-0.296,1.062-0.512,1.555-0.859c0.583-0.416,1.06-0.86,1.467-1.354c-0.554-0.869-0.896-1.687-1.129-2.687
		c-0.265,0.544-0.405,0.799-0.689,1.211c-0.184-0.211-0.299-0.306-0.513-0.435c0.107-0.127,0.139-0.17,0.225-0.288
		c-0.192-0.033-0.407-0.042-0.947-0.042h-0.444v2.871c0.626-0.214,0.924-0.319,1.721-0.639l0.01,0.657
		c-1.358,0.532-2.242,0.831-3.027,1.043c-0.833,0.225-1.342,0.362-1.577,0.448l-0.188-0.767c0.232-0.011,0.455-0.041,0.794-0.114
		V7.293c0-0.48-0.009-0.735-0.05-1.053h0.732c-0.046,0.33-0.055,0.616-0.055,1.042v3.521c0.279-0.067,0.597-0.163,0.99-0.28V4.518
		h-1.119c-0.338,0-0.648,0.021-0.956,0.064V3.829c0.308,0.04,0.585,0.063,0.979,0.063h2.572c0.436,0,0.691-0.011,0.96-0.055V4.57
		c-0.291-0.042-0.492-0.052-0.887-0.052h-0.9v2.318h0.444c0.554,0,0.755-0.01,0.956-0.042v0.678
		c0.524-0.814,0.903-1.784,1.192-3.051c0.17-0.698,0.265-1.275,0.275-1.604l0.745,0.151c-0.063,0.211-0.063,0.211-0.34,1.392
		c-0.054,0.201-0.086,0.327-0.141,0.521h2.531c0.481,0,0.779-0.022,1.012-0.063V5.53z M135.282,5.475
		c-0.096,0.297-0.127,0.414-0.232,0.682c0.256,1.209,0.594,2.106,1.156,2.997c0.673-1.074,1.024-2.211,1.149-3.679H135.282z"/>
	<path fill="#135D96" d="M140.36,5.593c0.689,0.425,1.052,0.689,1.819,1.327l-0.415,0.588c-0.637-0.631-1.085-0.981-1.809-1.416
		L140.36,5.593z M142.254,9.067c-0.445,1.129-0.765,1.788-1.397,2.873c-0.059,0.108-0.092,0.182-0.209,0.405l-0.617-0.553
		c0.216-0.225,0.382-0.471,0.649-0.928c0.436-0.777,0.658-1.244,1.02-2.209L142.254,9.067z M140.995,3.082
		c0.704,0.458,1.121,0.8,1.715,1.396l-0.434,0.553c-0.531-0.599-1.002-1.001-1.711-1.481L140.995,3.082z M144.041,5.348
		c-0.385,0-0.746,0.021-1.034,0.062V4.668c0.267,0.042,0.595,0.065,1.043,0.065h1.487V3.997c0-0.51-0.019-0.809-0.06-1.052h0.806
		c-0.053,0.306-0.065,0.586-0.065,1.052v0.737h2.021c0.397,0,0.673-0.023,0.958-0.065V5.41c-0.285-0.04-0.552-0.062-0.948-0.062
		h-2.03v1.945h2.404c0.415,0,0.692-0.02,0.979-0.062v0.744c-0.286-0.046-0.585-0.063-0.965-0.063h-2.758
		c-0.616,1.603-0.841,2.093-1.49,3.313c1.864-0.179,2.606-0.264,3.649-0.457c-0.444-0.709-0.692-1.028-1.308-1.796l0.576-0.308
		c0.923,1.139,1.476,1.945,2.263,3.338l-0.648,0.384c-0.275-0.553-0.362-0.722-0.563-1.083c-0.841,0.146-0.841,0.146-1.916,0.307
		c-0.772,0.117-0.772,0.117-3.104,0.373c-0.435,0.041-0.583,0.065-0.818,0.106l-0.17-0.768c0.16,0.023,0.243,0.023,0.361,0.023
		c0.201,0,0.47-0.011,0.892-0.055c0.703-1.244,1.138-2.213,1.546-3.379h-1.577c-0.391,0-0.742,0.018-1.038,0.063V7.231
		c0.284,0.043,0.604,0.062,1.052,0.062h1.953V5.348H144.041z"/>
	<path fill="#135D96" d="M155.86,3.07c-0.035,0.182-0.055,0.607-0.055,0.949c0,0.629,0.104,1.71,0.233,2.307
		c0.181,0.85,0.755,2.106,1.371,2.976c0.425,0.599,1.002,1.202,1.572,1.683c0.34,0.287,0.619,0.466,1.236,0.831
		c-0.256,0.232-0.372,0.357-0.555,0.668c-1.296-0.882-2.062-1.629-2.819-2.725c-0.656-0.967-1.062-1.953-1.381-3.38
		c-0.192,1.011-0.37,1.582-0.732,2.372c-0.374,0.819-0.842,1.498-1.522,2.179c-0.595,0.617-1.034,0.968-1.955,1.554
		c-0.185-0.289-0.308-0.427-0.575-0.632c1.073-0.593,1.554-0.939,2.168-1.603c1.479-1.584,2.205-3.627,2.205-6.241
		c0-0.448-0.013-0.659-0.045-0.938H155.86z"/>
	<path fill="#135D96" d="M164.474,3.866c0-0.574-0.023-0.993-0.071-1.47c0.396,0.044,0.756,0.057,1.401,0.057h7.158
		c0.637,0,0.982-0.013,1.426-0.057c-0.048,0.44-0.073,0.847-0.073,1.47v7.29c0,0.875,0.025,1.316,0.073,1.64h-0.839v-0.729h-8.309
		v0.729h-0.838c0.048-0.323,0.071-0.755,0.071-1.64V3.866z M165.24,11.381h8.309V3.133h-8.309V11.381z M167.287,4.905
		c-0.516,0-0.8,0.013-1.125,0.062V4.203c0.335,0.06,0.599,0.068,1.125,0.068h4.229c0.536,0,0.858-0.026,1.17-0.068v0.764
		c-0.336-0.049-0.62-0.062-1.162-0.062h-1.843v1.857h1.473c0.54,0,0.778-0.012,1.078-0.06v0.754c-0.3-0.048-0.577-0.062-1.078-0.062
		h-1.473v2.195h2.013c0.49,0,0.835-0.026,1.172-0.074v0.789c-0.347-0.046-0.709-0.068-1.172-0.068h-4.562
		c-0.488,0-0.828,0.022-1.187,0.068V9.515c0.336,0.048,0.685,0.074,1.187,0.074h1.809V7.394h-1.284c-0.503,0-0.79,0.015-1.086,0.062
		V6.703c0.296,0.048,0.535,0.06,1.086,0.06h1.284V4.905H167.287z M171.13,7.613c0.492,0.49,0.683,0.756,1.126,1.426l-0.562,0.358
		c-0.421-0.732-0.61-0.993-1.066-1.485L171.13,7.613z"/>
	<path fill="#135D96" d="M181.844,11.239c0.92-1.925,1.827-4.595,2.008-5.938l0.922,0.31c-0.12,0.293-0.12,0.293-0.478,1.452
		c-0.453,1.472-0.995,2.885-1.605,4.176h2.765c0.555,0,0.959-0.022,1.317-0.07v0.909c-0.383-0.06-0.728-0.085-1.317-0.085h-7.973
		c-0.596,0-0.992,0.025-1.375,0.085v-0.909c0.383,0.048,0.79,0.07,1.375,0.07H181.844z M180.941,3.015
		c0-0.35-0.022-0.61-0.082-0.981h0.945c-0.059,0.347-0.084,0.646-0.084,0.97v0.982h3.198c0.599,0,1.007-0.023,1.377-0.085v0.898
		c-0.395-0.048-0.802-0.073-1.377-0.073h-7.014c-0.55,0-0.948,0.025-1.332,0.073V3.901c0.336,0.062,0.729,0.085,1.332,0.085h3.036
		V3.015z M178.969,5.433c0.576,1.57,0.91,2.77,1.295,4.731l-0.779,0.297c-0.311-1.784-0.729-3.304-1.306-4.742L178.969,5.433z"/>
	<path fill="#135D96" d="M192.973,2.666c0-0.309-0.025-0.536-0.072-0.812h0.909c-0.047,0.264-0.071,0.49-0.071,0.802v0.242h3.735
		c0.501,0,0.815-0.026,1.187-0.073v0.789c-0.384-0.048-0.708-0.057-1.187-0.057h-8.058c-0.465,0-0.813,0.009-1.186,0.057V2.825
		c0.35,0.047,0.695,0.073,1.212,0.073h3.53V2.666z M188.628,8.559c0-0.419-0.013-0.72-0.048-1.076
		c0.346,0.035,0.685,0.047,1.182,0.047h7.425c0.588,0,0.851-0.012,1.159-0.047c-0.035,0.371-0.044,0.632-0.044,1.052v3.174
		c0,0.406-0.075,0.607-0.277,0.741c-0.192,0.132-0.396,0.167-1.029,0.167c-0.275,0-0.345,0-1.114-0.035
		c-0.025-0.322-0.061-0.467-0.154-0.742c0.479,0.069,0.932,0.105,1.352,0.105c0.431,0,0.491-0.036,0.491-0.275V8.164h-8.199v3.446
		c0,0.527,0.013,0.815,0.072,1.221h-0.885c0.045-0.322,0.07-0.741,0.07-1.208V8.559z M190.217,5.197
		c0-0.383-0.011-0.658-0.035-0.911c0.312,0.035,0.623,0.048,1.138,0.048h4.441c0.466,0,0.685-0.013,1.02-0.048
		c-0.025,0.344-0.038,0.514-0.038,0.919v0.649c0,0.524,0,0.67,0.038,0.934c-0.349-0.037-0.589-0.048-1.102-0.048h-4.419
		c-0.455,0-0.694,0.011-1.078,0.048c0.024-0.253,0.035-0.469,0.035-0.934V5.197z M190.95,6.129h5.063V4.953h-5.063V6.129z
		 M195.833,10.497c0,0.433,0.013,0.61,0.035,0.851c-0.309-0.021-0.681-0.035-1.099-0.035h-3.04v0.659h-0.779
		c0.034-0.254,0.059-0.562,0.059-0.995V9.778c0-0.381-0.012-0.62-0.035-0.873c0.275,0.026,0.527,0.035,0.97,0.035h2.87
		c0.457,0,0.746-0.009,1.055-0.035c-0.022,0.24-0.035,0.419-0.035,0.815V10.497z M191.717,10.715h3.423V9.542h-3.423V10.715z"/>
	<path fill="#135D96" d="M201.97,3.518c-0.464,0.683-0.766,1.028-1.339,1.557c-0.18-0.214-0.35-0.356-0.573-0.489
		c0.959-0.753,1.637-1.688,1.963-2.696l0.765,0.229c-0.177,0.335-0.239,0.444-0.409,0.754h1.824c0.55,0,0.87-0.021,1.184-0.069
		v0.763c-0.335-0.034-0.634-0.047-1.103-0.047h-0.751c0.239,0.36,0.381,0.646,0.633,1.208l-0.696,0.253
		c-0.204-0.586-0.381-0.98-0.656-1.461H201.97z M204.966,5.375c-0.014-0.372-0.026-0.505-0.074-0.744h0.862
		c-0.05,0.23-0.062,0.372-0.073,0.744h2.866c0.548,0,0.881-0.024,1.204-0.072V6.09c-0.323-0.047-0.717-0.068-1.194-0.068h-2.876
		v1.182h3.869c0.551,0,0.918-0.022,1.233-0.07v0.79c-0.336-0.049-0.729-0.07-1.233-0.07h-1.424v1.173h1.388
		c0.517,0,0.886-0.026,1.234-0.073v0.79c-0.349-0.049-0.744-0.07-1.234-0.07h-1.388v2.143c0,0.705-0.289,0.875-1.473,0.875
		c-0.339,0-0.756-0.012-1.174-0.038c-0.049-0.322-0.107-0.488-0.214-0.755c0.551,0.074,0.981,0.095,1.553,0.095
		c0.455,0,0.551-0.058,0.551-0.31v-2.01h-5.803c-0.521,0-0.89,0.021-1.246,0.07v-0.79c0.347,0.047,0.718,0.073,1.233,0.073h5.815
		V7.853h-5.828c-0.503,0-0.887,0.021-1.244,0.07v-0.79c0.309,0.048,0.681,0.07,1.23,0.07h3.438V6.022h-2.408
		c-0.517,0-0.873,0.021-1.209,0.068V5.302c0.323,0.048,0.672,0.072,1.209,0.072H204.966z M203.011,9.875
		c0.9,0.671,1.031,0.793,1.869,1.651l-0.599,0.55c-0.751-0.886-0.956-1.073-1.807-1.697L203.011,9.875z M206.558,3.507
		c-0.275,0.418-0.542,0.73-0.913,1.111c-0.177-0.202-0.296-0.285-0.584-0.43c0.742-0.646,1.27-1.435,1.593-2.359l0.716,0.229
		c-0.106,0.229-0.179,0.346-0.427,0.813h2.571c0.552,0,0.942-0.021,1.27-0.069v0.763c-0.372-0.047-0.753-0.058-1.256-0.058h-1.329
		c0.272,0.418,0.443,0.717,0.656,1.148l-0.683,0.275c-0.236-0.585-0.385-0.865-0.729-1.424H206.558z"/>
	<path fill="#135D96" d="M213.542,3.626c-0.488,0-0.846,0.023-1.195,0.07V2.906c0.35,0.05,0.683,0.074,1.211,0.074h3.482V2.872
		c0-0.467-0.013-0.718-0.073-0.992h0.863c-0.046,0.3-0.07,0.587-0.07,0.992V2.98h3.796c0.527,0,0.833-0.024,1.195-0.074v0.791
		c-0.362-0.047-0.708-0.07-1.186-0.07h-3.806v0.886h2.883c0.469,0,0.695-0.013,1.019-0.048c-0.036,0.308-0.05,0.502-0.05,0.86v2.24
		c0,0.347,0.014,0.528,0.05,0.839c-0.346-0.035-0.598-0.049-1.031-0.049h-0.323v0.85h1.259c0.526,0,0.837-0.025,1.195-0.072v0.789
		c-0.345-0.048-0.718-0.07-1.183-0.07h-1.271v1.951c0,0.662-0.286,0.851-1.268,0.851c-0.312,0-0.454,0-1.161-0.036
		c-0.036-0.301-0.057-0.396-0.228-0.755c0.417,0.074,0.943,0.109,1.428,0.109c0.426,0,0.511-0.049,0.511-0.302V9.851h-6.047
		c-0.467,0-0.823,0.022-1.195,0.07V9.132c0.35,0.047,0.683,0.072,1.211,0.072h6.031v-0.85h-5.147c-0.428,0-0.668,0.014-1.017,0.049
		c0.035-0.311,0.048-0.516,0.048-0.839v-2.24c0-0.333-0.013-0.538-0.048-0.86c0.31,0.035,0.55,0.048,1.017,0.048h2.599V3.626
		H213.542z M214.213,6.079h2.827V5.123h-2.827V6.079z M214.213,7.758h2.827V6.667h-2.827V7.758z M216.349,12.15
		c-0.638-0.693-1.081-1.091-1.764-1.571l0.563-0.452c0.776,0.539,1.222,0.911,1.783,1.483L216.349,12.15z M217.76,6.079h3.11V5.123
		h-3.11V6.079z M217.76,7.758h3.11V6.667h-3.11V7.758z"/>
	<path fill="#135D96" d="M225.526,11.374c0,0.667,0.021,1.041,0.071,1.339h-0.9c0.048-0.335,0.069-0.72,0.069-1.352V3.59
		c0-0.587-0.008-0.935-0.043-1.316c0.32,0.035,0.653,0.049,1.244,0.049h1.736c0.596,0,0.886-0.014,1.221-0.049
		c-0.022,0.324-0.035,0.659-0.035,1.135v1.879c0,0.518,0.013,0.781,0.035,1.104c-0.267-0.026-0.72-0.034-1.209-0.034h-2.189V11.374z
		 M225.526,4.01h2.67V2.933h-2.67V4.01z M225.526,5.745h2.67V4.609h-2.67V5.745z M234.277,11.479c0,0.851-0.253,1.056-1.295,1.056
		c-0.38,0-0.887-0.013-1.388-0.048c-0.05-0.325-0.098-0.516-0.216-0.805c0.562,0.085,1.089,0.133,1.459,0.133
		c0.588,0,0.684-0.048,0.684-0.312V6.358h-2.333c-0.515,0-0.947,0.008-1.212,0.034c0.024-0.323,0.037-0.647,0.037-1.104V3.409
		c0-0.418-0.013-0.776-0.037-1.135c0.326,0.035,0.637,0.049,1.225,0.049h1.877c0.588,0,0.92-0.014,1.257-0.049
		c-0.044,0.418-0.058,0.776-0.058,1.316V11.479z M230.709,4.01h2.812V2.933h-2.812V4.01z M230.709,5.745h2.812V4.609h-2.812V5.745z"
		/>
	<path fill="#135D96" d="M241.934,11.78c0,0.742-0.228,0.886-1.339,0.886c-0.337,0-0.961-0.021-1.378-0.071
		c-0.083-0.348-0.132-0.504-0.251-0.767c0.61,0.081,1.172,0.13,1.567,0.13c0.554,0,0.635-0.033,0.635-0.287V9.264h-3.592
		c-0.527,0-0.898,0.025-1.257,0.073V8.511c0.35,0.05,0.729,0.07,1.244,0.07h3.604V8.378c0-0.238-0.012-0.454-0.037-0.707h0.505
		c0.826-0.394,1.507-0.825,2.143-1.353h-4.379c-0.41,0-0.816,0.024-1.14,0.06V5.602c0.336,0.035,0.717,0.058,1.16,0.058h4.322
		c0.443,0,0.681-0.008,0.886-0.05l0.455,0.48c-0.157,0.122-0.157,0.122-0.42,0.351c-0.802,0.67-1.543,1.158-2.729,1.771v0.369h3.56
		c0.535,0,0.919-0.021,1.254-0.07v0.826c-0.335-0.048-0.744-0.073-1.27-0.073h-3.544V11.78z M238.702,3.866
		c-0.346-0.61-0.561-0.911-1.126-1.557l0.719-0.227c0.55,0.681,0.801,1.041,1.222,1.771h1.748c-0.231-0.634-0.456-1.099-0.874-1.722
		l0.74-0.206c0.454,0.79,0.647,1.198,0.911,1.928h1.317c0.563-0.646,0.882-1.16,1.231-1.928l0.754,0.322
		c-0.501,0.803-0.754,1.15-1.147,1.605h0.934c0.692,0,0.954-0.013,1.378-0.047c-0.039,0.309-0.052,0.55-0.052,0.993v0.886
		c0,0.275,0.026,0.562,0.062,0.838h-0.791V4.512h-8.45v2.011h-0.789c0.032-0.275,0.061-0.536,0.061-0.838V4.799
		c0-0.443-0.016-0.685-0.051-0.993c0.444,0.047,0.707,0.06,1.365,0.06H238.702z"/>
	<path fill="#135D96" d="M250.741,4.992c0.262,0.753,0.671,1.387,1.296,2.034c-0.192,0.226-0.291,0.382-0.422,0.635
		c-0.421-0.55-0.647-0.945-0.947-1.713c0.039,1.33,0.052,1.499,0.052,1.953v3.543c0,0.67,0.008,1.041,0.069,1.387h-0.885
		c0.048-0.358,0.07-0.741,0.07-1.387V8.067c0-0.524,0.013-0.862,0.062-1.88c-0.372,1.482-0.85,2.564-1.616,3.628
		c-0.169-0.312-0.275-0.465-0.479-0.706c0.776-0.906,1.553-2.563,1.923-4.117h-0.69c-0.348,0-0.634,0.009-0.861,0.048V4.294
		c0.228,0.039,0.479,0.052,0.874,0.052h0.788V3.133c0-0.693-0.013-0.956-0.057-1.244h0.858c-0.049,0.302-0.057,0.623-0.057,1.236
		v1.221h0.598c0.358,0,0.55-0.013,0.776-0.052v0.732c-0.236-0.026-0.488-0.035-0.764-0.035H250.741z M257.145,7.264
		c-0.068,0.144-0.068,0.144-0.405,0.838c-0.383,0.815-0.658,1.284-1.052,1.833c0.394,0.431,0.729,0.732,1.208,1.054
		c0.658,0.441,1.185,0.707,2.19,1.052c-0.205,0.254-0.311,0.432-0.444,0.733c-1.565-0.624-2.453-1.222-3.411-2.29
		c-0.934,1.043-1.866,1.687-3.351,2.312c-0.156-0.297-0.252-0.44-0.468-0.671c1.511-0.55,2.418-1.148,3.363-2.203
		c-0.396-0.535-0.597-0.922-1.184-2.115c-0.025-0.062-0.037-0.085-0.12-0.264l-0.096-0.195l0.729-0.345
		c0.263,0.909,0.602,1.592,1.126,2.348c0.562-0.789,0.921-1.544,1.161-2.421L257.145,7.264z M254.5,5.015
		c-0.705,1.39-1.162,2.023-2.093,2.896c-0.156-0.242-0.265-0.346-0.517-0.564c0.958-0.812,1.363-1.362,1.939-2.644L254.5,5.015z
		 M254.885,3.016c0-0.41-0.025-0.686-0.074-0.947h0.899c-0.049,0.253-0.073,0.537-0.073,0.934v0.659h2.036
		c0.479,0,0.912-0.021,1.23-0.058v0.8c-0.346-0.035-0.775-0.058-1.23-0.058h-4.191c-0.476,0-0.935,0.022-1.244,0.07V3.592
		c0.323,0.048,0.721,0.069,1.244,0.069h1.403V3.016z M256.644,4.656c0.635,1.052,1.138,1.614,2.202,2.43
		c-0.204,0.228-0.3,0.361-0.465,0.659c-1.103-0.911-1.629-1.52-2.357-2.753L256.644,4.656z"/>
	<path fill="#135D96" d="M261.504,3.183c0-0.66-0.012-0.983-0.061-1.244h0.823c-0.035,0.287-0.048,0.623-0.048,1.233v1.182h0.323
		c0.35,0,0.59-0.008,0.779-0.043v0.751c-0.279-0.035-0.456-0.05-0.767-0.05h-0.288c0.228,0.577,0.501,1.022,0.889,1.45
		c-0.134,0.205-0.194,0.313-0.333,0.623c-0.303-0.405-0.446-0.693-0.652-1.282c0.026,0.829,0.049,1.342,0.049,1.763v3.925
		c0,0.682,0.013,1.079,0.061,1.39h-0.836c0.049-0.333,0.07-0.767,0.07-1.39V8.225c0-0.469,0.048-1.404,0.118-2.312
		c-0.321,1.653-0.717,2.744-1.35,3.747c-0.109-0.263-0.265-0.502-0.432-0.694c0.715-1.018,1.243-2.348,1.558-3.953h-0.421
		c-0.339,0-0.622,0.015-0.824,0.05V4.311c0.213,0.035,0.415,0.043,0.824,0.043h0.517V3.183z M265.008,8.657
		c-0.024,0.309-0.024,0.335-0.045,0.571c0.392,0.515,0.835,0.875,1.554,1.282c-0.141,0.157-0.203,0.24-0.393,0.575
		c-0.59-0.385-0.923-0.684-1.305-1.138c-0.31,1.186-0.781,1.949-1.64,2.704c-0.207-0.252-0.303-0.346-0.578-0.515
		c1.104-0.764,1.603-1.771,1.728-3.48h-0.134c-0.445,0-0.754,0.008-1.077,0.057V7.958c0.337,0.047,0.562,0.062,1.077,0.062h2.729
		c-0.105-0.55-0.142-0.886-0.203-1.496c-0.132-1.257-0.155-1.662-0.178-3.747c0-0.31-0.026-0.502-0.061-0.754h0.836
		c-0.048,0.287-0.058,0.501-0.058,1.173c0,1.797,0.104,3.415,0.333,4.824h2.119c0.72,0,0.934-0.015,1.271-0.071v0.776
		c-0.385-0.06-0.695-0.067-1.271-0.067h-1.998c0.158,0.657,0.31,1.086,0.599,1.602c0.575-0.516,0.921-0.921,1.112-1.341l0.609,0.42
		c-0.571,0.67-0.945,1.064-1.387,1.461c0.514,0.728,1.008,1.159,1.318,1.159c0.144,0,0.217-0.096,0.321-0.405
		c0.097-0.288,0.105-0.384,0.215-1.209c0.229,0.202,0.374,0.298,0.61,0.416c-0.275,1.511-0.515,1.954-1.078,1.954
		c-0.584,0-1.233-0.504-1.914-1.484c-0.898,0.681-1.783,1.125-2.967,1.51c-0.156-0.287-0.229-0.385-0.48-0.614
		c1.271-0.332,2.133-0.729,3.102-1.448c-0.358-0.669-0.515-1.087-0.732-2.02H265.008z M265.402,2.309
		c-0.37,0.741-0.68,1.256-1.124,1.845c0.261,0.287,0.37,0.405,0.576,0.694c0.323-0.515,0.443-0.733,0.719-1.317l0.571,0.405
		c-0.768,1.222-1.232,1.895-1.854,2.635c0.589-0.07,1.111-0.144,1.495-0.214c-0.144-0.322-0.192-0.42-0.394-0.744l0.477-0.181
		c0.359,0.59,0.528,0.981,0.781,1.713l-0.541,0.229c-0.06-0.24-0.083-0.312-0.143-0.527c-0.503,0.109-1.138,0.227-2.287,0.405
		c-0.143,0.026-0.189,0.026-0.335,0.062l-0.144-0.681c0.073,0.013,0.108,0.013,0.144,0.013c0.062,0,0.11,0,0.205-0.013
		c0.431-0.529,0.646-0.802,0.96-1.258c-0.446-0.601-0.795-0.971-1.413-1.496l0.431-0.48c0.097,0.097,0.2,0.206,0.331,0.324
		c0.471-0.659,0.695-1.103,0.912-1.724L265.402,2.309z M267.594,6.295c0.083,0.014,0.134,0.014,0.182,0.014
		c0.036,0,0.071,0,0.119-0.014c0.409-0.465,0.502-0.588,0.885-1.077c-0.476-0.648-0.767-0.947-1.378-1.448l0.396-0.503
		c0.193,0.181,0.24,0.228,0.372,0.359c0.408-0.563,0.632-0.981,0.874-1.579l0.622,0.332c-0.419,0.721-0.634,1.054-1.088,1.652
		c0.236,0.263,0.35,0.397,0.571,0.685c0.478-0.671,0.603-0.863,0.925-1.438l0.551,0.433c-1.09,1.461-1.426,1.891-2.012,2.55
		c0.655-0.048,0.97-0.081,1.461-0.168c-0.133-0.298-0.181-0.385-0.361-0.669l0.492-0.192c0.337,0.551,0.573,1.052,0.872,1.842
		l-0.549,0.218c-0.108-0.361-0.157-0.492-0.24-0.706c-0.273,0.061-1.063,0.166-2.358,0.332c-0.083,0.013-0.096,0.013-0.202,0.039
		L267.594,6.295z M268.889,6.869c0.346,0.204,0.575,0.396,0.911,0.73l-0.433,0.405c-0.3-0.335-0.526-0.535-0.902-0.787
		L268.889,6.869z"/>
	<path fill="#135D96" d="M274.67,4.944c0.318,0.958,0.668,1.557,1.23,2.19c-0.18,0.191-0.274,0.301-0.455,0.589
		c-0.383-0.554-0.587-0.973-0.886-1.749c0.036,0.561,0.059,1.29,0.059,1.854v3.616c0,0.646,0.013,1.064,0.074,1.387h-0.839
		c0.048-0.332,0.07-0.778,0.07-1.387V8.093c0-0.575,0.022-1.247,0.071-1.866c-0.394,1.338-0.479,1.601-0.739,2.177
		c-0.229,0.501-0.409,0.824-0.696,1.281c-0.157-0.252-0.228-0.335-0.516-0.598c0.803-1.091,1.39-2.478,1.76-4.144h-0.587
		c-0.357,0-0.622,0.009-0.824,0.048V4.236c0.218,0.035,0.441,0.05,0.824,0.05h0.693v-1.14c0-0.671-0.009-0.981-0.057-1.229h0.826
		c-0.049,0.298-0.062,0.633-0.062,1.229v1.14h0.418c0.349,0,0.562-0.015,0.794-0.05v0.756c-0.244-0.039-0.468-0.048-0.781-0.048
		H274.67z M276.702,6.392c-0.527,0-0.815,0.013-1.165,0.06V5.733c0.314,0.049,0.604,0.061,1.14,0.061h0.78v-0.85h-0.301
		c-0.44,0-0.706,0.009-1.003,0.048V4.321c0.287,0.035,0.562,0.049,1.003,0.049h0.301V3.566h-0.661c-0.441,0-0.741,0.012-1.052,0.048
		V2.933c0.287,0.047,0.575,0.058,1.052,0.058h0.661c-0.013-0.563-0.026-0.791-0.074-1.042h0.814
		c-0.059,0.251-0.068,0.468-0.068,1.042h2.021c-0.014-0.668-0.014-0.8-0.07-1.042h0.812c-0.061,0.299-0.07,0.565-0.07,1.042h0.959
		c0.463,0,0.738-0.022,1.053-0.071v0.707c-0.336-0.049-0.576-0.061-1.053-0.061h-0.959V4.37h0.61c0.432,0,0.717-0.014,1.004-0.06
		v0.692c-0.275-0.05-0.551-0.059-1.004-0.059h-0.61v0.85h1.077c0.537,0,0.828-0.012,1.161-0.073v0.742
		c-0.358-0.058-0.61-0.07-1.175-0.07h-2.537v0.777h1.675c0.469,0,0.862-0.024,1.151-0.059c-0.035,0.275-0.049,0.621-0.049,1.219
		v1.88h0.097c0.419,0,0.603-0.01,0.898-0.069v0.717c-0.322-0.034-0.575-0.05-0.898-0.05h-0.097v0.938c0,0.742-0.227,0.92-1.138,0.92
		c-0.371,0-0.694-0.012-1.16-0.034c-0.023-0.23-0.07-0.469-0.145-0.686c0.515,0.073,0.873,0.096,1.271,0.096
		c0.396,0,0.479-0.048,0.479-0.332v-0.901h-4.599v0.707c0,0.768,0,0.973,0.049,1.316h-0.802c0.048-0.381,0.062-0.693,0.062-1.316
		v-0.707c-0.337,0-0.586,0.024-0.838,0.06v-0.714c0.252,0.047,0.466,0.057,0.838,0.057V8.294c0-0.477-0.014-0.765-0.049-1.149
		c0.298,0.015,0.693,0.024,1.305,0.024h1.305V6.392H276.702z M278.701,7.745h-1.869v0.92h1.869V7.745z M278.701,9.228h-1.869v0.981
		h1.869V9.228z M280.149,3.566h-2.021V4.37h2.021V3.566z M280.149,4.944h-2.021v0.851h2.021V4.944z M281.431,7.745h-2.084v0.92
		h2.084V7.745z M281.431,9.228h-2.084v0.981h2.084V9.228z"/>
	<path fill="#135D96" d="M104.347,55.896c-0.781,0.045-1.114,0.225-1.172,0.836c-0.054,0.42-0.084,1.051-0.084,2.35v5.625h-0.432
		l-5.948-7.314h-0.026v3.504c0,1.281,0.043,1.953,0.083,2.361c0.072,0.707,0.39,0.879,1.339,0.932v0.393h-3.309v-0.393
		c0.81-0.041,1.16-0.225,1.231-0.904c0.041-0.436,0.083-1.107,0.083-2.389v-3.072c0-1.02-0.028-1.074-0.282-1.41
		c-0.277-0.348-0.584-0.459-1.241-0.518v-0.389h2.066l5.821,7.008h0.042v-3.434c0-1.287-0.054-1.93-0.1-2.314
		c-0.07-0.631-0.401-0.812-1.365-0.871v-0.389h3.293V55.896z"/>
	<path fill="#135D96" d="M109.191,64.748c-0.208,0-0.503-0.123-0.657-0.264c-0.18-0.195-0.263-0.391-0.335-0.631
		c-0.555,0.379-1.227,0.895-1.645,0.895c-0.992,0-1.677-0.824-1.677-1.703c0-0.684,0.365-1.119,1.133-1.381
		c0.839-0.279,1.857-0.656,2.161-0.908v-0.252c0-1.004-0.475-1.576-1.17-1.576c-0.282,0-0.488,0.111-0.632,0.277
		c-0.178,0.184-0.307,0.49-0.418,0.92c-0.053,0.225-0.208,0.324-0.406,0.324c-0.248,0-0.614-0.277-0.614-0.6
		c0-0.209,0.183-0.363,0.448-0.559c0.39-0.279,1.298-0.828,2.095-0.977c0.419,0,0.837,0.123,1.144,0.373
		c0.49,0.406,0.631,0.98,0.631,1.705v2.598c0,0.627,0.248,0.836,0.486,0.836c0.17,0,0.365-0.068,0.505-0.156l0.137,0.365
		L109.191,64.748z M108.172,61.232c-0.291,0.152-0.964,0.445-1.252,0.586c-0.55,0.248-0.856,0.516-0.856,1.02
		c0,0.721,0.562,1.072,0.991,1.072c0.365-0.016,0.854-0.252,1.117-0.5V61.232z"/>
	<path fill="#135D96" d="M113.452,64.566c-0.239,0.127-0.463,0.182-0.587,0.182c-0.881,0-1.369-0.559-1.369-1.656v-4.068h-0.964
		l-0.057-0.137l0.378-0.408h0.643v-1.02l0.908-0.918l0.195,0.025v1.912h1.578c0.126,0.141,0.082,0.449-0.087,0.545H112.6v3.59
		c0,1.127,0.46,1.34,0.812,1.34c0.344,0,0.667-0.139,0.862-0.24l0.128,0.365L113.452,64.566z"/>
	<path fill="#135D96" d="M115.059,64.582v-0.363c0.876-0.082,0.976-0.17,0.976-1.117v-2.877c0-0.865-0.043-0.92-0.881-1.061v-0.338
		c0.713-0.111,1.37-0.291,1.983-0.539v4.814c0,0.947,0.095,1.035,0.992,1.117v0.363H115.059z M115.796,56.389
		c0-0.422,0.337-0.729,0.715-0.729c0.388,0,0.695,0.307,0.695,0.729c0,0.379-0.308,0.711-0.713,0.711
		C116.133,57.1,115.796,56.768,115.796,56.389"/>
	<path fill="#135D96" d="M124.8,61.426c0,2.246-1.646,3.322-3.027,3.322c-1.911,0-3.061-1.535-3.061-3.084
		c0-2.305,1.788-3.352,3.061-3.352C123.502,58.312,124.8,59.693,124.8,61.426 M120.013,61.217c0,1.76,0.769,3.074,1.912,3.074
		c0.864,0,1.577-0.643,1.577-2.557c0-1.633-0.655-2.959-1.871-2.959C120.766,58.775,120.013,59.641,120.013,61.217"/>
	<path fill="#135D96" d="M129.229,64.582v-0.363c0.82-0.082,0.919-0.195,0.919-1.158v-2.332c0-0.965-0.338-1.592-1.268-1.592
		c-0.561,0-1.104,0.35-1.525,0.713v3.283c0,0.945,0.085,1.004,0.907,1.086v0.363h-3.027v-0.363c0.951-0.098,1.021-0.168,1.021-1.086
		v-2.896c0-0.891-0.083-0.932-0.839-1.072v-0.318c0.668-0.129,1.323-0.295,1.938-0.574v1.117c0.281-0.209,0.589-0.422,0.937-0.656
		c0.391-0.252,0.755-0.418,1.16-0.418c1.103,0,1.801,0.768,1.801,2.119v2.699c0,0.945,0.069,1.004,0.879,1.086v0.363H129.229z"/>
	<path fill="#135D96" d="M137.205,64.748c-0.212,0-0.506-0.123-0.66-0.264c-0.178-0.195-0.265-0.391-0.332-0.631
		c-0.558,0.379-1.23,0.895-1.649,0.895c-0.991,0-1.676-0.824-1.676-1.703c0-0.684,0.365-1.119,1.133-1.381
		c0.838-0.279,1.859-0.656,2.163-0.908v-0.252c0-1.004-0.475-1.576-1.173-1.576c-0.277,0-0.489,0.111-0.627,0.277
		c-0.182,0.184-0.309,0.49-0.417,0.92c-0.059,0.225-0.212,0.324-0.407,0.324c-0.252,0-0.614-0.277-0.614-0.6
		c0-0.209,0.183-0.363,0.445-0.559c0.39-0.279,1.299-0.828,2.097-0.977c0.416,0,0.834,0.123,1.141,0.373
		c0.491,0.406,0.631,0.98,0.631,1.705v2.598c0,0.627,0.254,0.836,0.488,0.836c0.167,0,0.362-0.068,0.503-0.156l0.142,0.365
		L137.205,64.748z M136.184,61.232c-0.293,0.152-0.965,0.445-1.256,0.586c-0.544,0.248-0.853,0.516-0.853,1.02
		c0,0.721,0.558,1.072,0.99,1.072c0.365-0.016,0.854-0.252,1.118-0.5V61.232z"/>
	<path fill="#135D96" d="M138.695,64.582v-0.363c0.878-0.082,1.003-0.168,1.003-1.086v-6.607c0-0.947-0.083-0.99-0.959-1.059v-0.334
		c0.723-0.084,1.59-0.324,2.066-0.49v8.49c0,0.918,0.106,1.004,1.003,1.086v0.363H138.695z"/>
	<path fill="#135D96" d="M144.641,64.582v-0.393c1.145-0.082,1.257-0.166,1.257-1.352v-5.586c0-1.186-0.112-1.27-1.257-1.355v-0.391
		h3.703v0.391c-1.147,0.086-1.256,0.17-1.256,1.355v5.586c0,1.197,0.108,1.27,1.256,1.352v0.393H144.641z"/>
	<path fill="#135D96" d="M152.921,64.582v-0.363c0.823-0.082,0.921-0.195,0.921-1.158v-2.332c0-0.965-0.331-1.592-1.272-1.592
		c-0.555,0-1.099,0.35-1.519,0.713v3.283c0,0.945,0.083,1.004,0.906,1.086v0.363h-3.029v-0.363c0.949-0.098,1.021-0.168,1.021-1.086
		v-2.896c0-0.891-0.083-0.932-0.842-1.072v-0.318c0.672-0.129,1.328-0.295,1.944-0.574v1.117c0.279-0.209,0.586-0.422,0.938-0.656
		c0.386-0.252,0.751-0.418,1.157-0.418c1.099,0,1.799,0.768,1.799,2.119v2.699c0,0.945,0.073,1.004,0.881,1.086v0.363H152.921z"/>
	<path fill="#135D96" d="M160.046,60.125c-0.266-0.82-0.752-1.381-1.438-1.381c-0.53,0-0.907,0.42-0.907,0.967
		c0,0.625,0.556,0.945,1.186,1.213c1.047,0.434,1.762,0.936,1.762,1.896c0,1.273-1.188,1.928-2.304,1.928
		c-0.711,0-1.356-0.264-1.604-0.475c-0.103-0.195-0.225-1.141-0.225-1.646l0.361-0.07c0.252,0.924,0.882,1.732,1.717,1.732
		c0.519,0,0.991-0.395,0.991-0.975c0-0.617-0.403-0.953-1.103-1.277c-0.836-0.385-1.742-0.848-1.742-1.922
		c0-0.979,0.837-1.801,2.121-1.801c0.574,0,0.948,0.123,1.243,0.236c0.111,0.318,0.262,1.145,0.304,1.492L160.046,60.125z"/>
	<path fill="#135D96" d="M164.201,64.566c-0.237,0.127-0.461,0.182-0.586,0.182c-0.88,0-1.368-0.559-1.368-1.656v-4.068h-0.961
		l-0.058-0.139l0.377-0.406h0.642v-1.02l0.91-0.92l0.189,0.027v1.912h1.581c0.124,0.139,0.081,0.445-0.085,0.545h-1.496v3.59
		c0,1.127,0.465,1.34,0.813,1.34c0.351,0,0.672-0.139,0.866-0.24l0.124,0.365L164.201,64.566z"/>
	<path fill="#135D96" d="M165.678,64.582v-0.363c0.881-0.082,0.977-0.168,0.977-1.117v-2.875c0-0.867-0.041-0.922-0.88-1.062v-0.338
		c0.713-0.109,1.367-0.291,1.981-0.543v4.818c0,0.949,0.102,1.035,0.991,1.117v0.363H165.678z M166.417,56.385
		c0-0.418,0.336-0.725,0.712-0.725c0.392,0,0.698,0.307,0.698,0.725c0,0.379-0.307,0.711-0.71,0.711
		C166.753,57.096,166.417,56.764,166.417,56.385"/>
	<path fill="#135D96" d="M172.181,64.566c-0.232,0.127-0.457,0.182-0.581,0.182c-0.884,0-1.368-0.559-1.368-1.656v-4.068h-0.966
		l-0.054-0.139l0.378-0.406h0.642v-1.02l0.904-0.92l0.199,0.027v1.912h1.578c0.126,0.139,0.084,0.445-0.086,0.545h-1.492v3.59
		c0,1.127,0.458,1.34,0.804,1.34c0.351,0,0.676-0.139,0.871-0.24l0.126,0.365L172.181,64.566z"/>
	<path fill="#135D96" d="M180.466,64.248c-0.645,0.096-1.354,0.293-2.053,0.5l-0.085-0.082V63.67
		c-0.319,0.24-0.641,0.492-1.032,0.73c-0.405,0.236-0.7,0.348-1.073,0.348c-0.938,0-1.733-0.57-1.733-2.08v-2.736
		c0-0.768-0.053-0.826-0.854-0.979v-0.316c0.66-0.045,1.326-0.129,1.999-0.252c-0.043,0.428-0.043,1.086-0.043,2.035v1.871
		c0,1.244,0.603,1.578,1.229,1.578c0.501,0,1.036-0.211,1.508-0.668v-3.256c0-0.797-0.083-0.852-1.09-0.992v-0.316
		c0.73-0.045,1.456-0.102,2.195-0.252v4.66c0,0.697,0.111,0.795,0.642,0.824l0.391,0.025V64.248z"/>
	<path fill="#135D96" d="M183.86,64.566c-0.236,0.127-0.461,0.182-0.585,0.182c-0.884,0-1.372-0.559-1.372-1.656v-4.068h-0.962
		l-0.054-0.139l0.376-0.406h0.64v-1.02l0.909-0.92l0.193,0.027v1.912h1.579c0.125,0.139,0.084,0.445-0.08,0.545h-1.499v3.59
		c0,1.127,0.465,1.34,0.813,1.34c0.348,0,0.667-0.139,0.862-0.24l0.129,0.365L183.86,64.566z"/>
	<path fill="#135D96" d="M190.424,63.398c-0.883,1.098-1.841,1.35-2.276,1.35c-1.721,0-2.725-1.395-2.725-2.977
		c0-0.961,0.35-1.812,0.921-2.441c0.577-0.641,1.328-1.016,2.058-1.016c1.158,0,2.093,1.031,2.093,2.119
		c0,0.279-0.07,0.393-0.322,0.447c-0.236,0.043-1.981,0.182-3.645,0.24c0.013,1.898,1.104,2.678,2.081,2.678
		c0.556,0,1.09-0.223,1.591-0.697L190.424,63.398z M186.597,60.545c0.785,0,1.551-0.014,2.361-0.041
		c0.252,0,0.334-0.084,0.334-0.277c0.013-0.727-0.46-1.4-1.227-1.4C187.422,58.826,186.808,59.416,186.597,60.545"/>
	<path fill="#135D96" d="M199.226,61.426c0,2.246-1.649,3.322-3.031,3.322c-1.91,0-3.056-1.535-3.056-3.084
		c0-2.305,1.783-3.352,3.056-3.352C197.928,58.312,199.226,59.693,199.226,61.426 M194.436,61.217c0,1.76,0.768,3.074,1.913,3.074
		c0.866,0,1.579-0.643,1.579-2.557c0-1.633-0.658-2.959-1.87-2.959C195.188,58.775,194.436,59.641,194.436,61.217"/>
	<path fill="#135D96" d="M200.806,58.479v-0.305c0-0.434,0.054-0.838,0.152-1.148c0.096-0.305,0.316-0.988,1.075-1.631
		c0.489-0.434,0.99-0.684,1.535-0.754c0.475,0.012,0.879,0.207,1.103,0.477c0.128,0.15,0.142,0.332,0.07,0.484
		c-0.042,0.111-0.125,0.225-0.266,0.338c-0.124,0.098-0.249,0.098-0.374-0.043c-0.281-0.252-0.675-0.514-1.135-0.514
		c-0.362,0-0.586,0.164-0.737,0.414c-0.184,0.27-0.338,0.938-0.323,2.123v0.559h1.645c0.088,0.127,0.018,0.461-0.138,0.545h-1.507
		v4.021c0,1.033,0.097,1.074,1.201,1.186v0.352h-3.297v-0.363c0.894-0.082,0.995-0.154,0.995-1.074v-4.121h-0.981l-0.055-0.141
		l0.378-0.404H200.806z"/>
	<path fill="#135D96" d="M214.255,57.672c-0.153-0.672-0.28-1.021-0.447-1.244c-0.225-0.336-0.459-0.432-1.509-0.432h-0.986v6.869
		c0,1.102,0.111,1.242,1.435,1.324v0.393h-4.008v-0.393c1.271-0.082,1.383-0.223,1.383-1.324v-6.869h-0.866
		c-1.16,0-1.439,0.111-1.622,0.432c-0.166,0.24-0.277,0.631-0.446,1.244h-0.404c0.072-0.838,0.142-1.746,0.171-2.516h0.277
		c0.195,0.322,0.374,0.35,0.768,0.35h5.515c0.376,0,0.489-0.086,0.713-0.35h0.295c0,0.641,0.069,1.666,0.141,2.473L214.255,57.672z"
		/>
	<path fill="#135D96" d="M219.477,63.398c-0.88,1.098-1.842,1.35-2.276,1.35c-1.717,0-2.721-1.395-2.721-2.977
		c0-0.961,0.35-1.812,0.921-2.441c0.571-0.641,1.328-1.016,2.053-1.016c1.156,0,2.094,1.031,2.094,2.119
		c0,0.279-0.07,0.393-0.318,0.447c-0.241,0.043-1.986,0.182-3.646,0.24c0.013,1.898,1.105,2.678,2.083,2.678
		c0.556,0,1.086-0.223,1.587-0.697L219.477,63.398z M215.653,60.545c0.783,0,1.547-0.014,2.359-0.041
		c0.25,0,0.333-0.084,0.333-0.277c0.013-0.727-0.459-1.4-1.229-1.4C216.476,58.826,215.86,59.416,215.653,60.545"/>
	<path fill="#135D96" d="M225.58,63.326c-0.614,0.811-1.548,1.422-2.375,1.422c-1.758,0-2.791-1.422-2.791-2.918
		c0-1.074,0.463-2.012,1.396-2.736c0.726-0.561,1.562-0.781,2.11-0.781c0.557,0,1.016,0.184,1.24,0.363
		c0.182,0.152,0.224,0.277,0.224,0.43c0,0.295-0.309,0.602-0.46,0.602c-0.069,0-0.141-0.041-0.265-0.152
		c-0.42-0.391-0.909-0.574-1.397-0.574c-0.923,0-1.732,0.771-1.732,2.236c0,1.941,1.329,2.582,2.108,2.582
		c0.602,0,1.062-0.17,1.704-0.768L225.58,63.326z"/>
	<path fill="#135D96" d="M230.161,64.582v-0.363c0.812-0.082,0.925-0.168,0.925-1.074v-2.318c0-1.145-0.432-1.721-1.373-1.721
		c-0.528,0-1.058,0.268-1.451,0.713v3.326c0,0.891,0.07,0.992,0.893,1.074v0.363H226.2v-0.363c0.835-0.07,0.958-0.152,0.958-1.074
		v-6.66c0-0.883-0.024-0.949-0.948-1.035v-0.318c0.672-0.102,1.51-0.324,2.052-0.49v4.689c0.493-0.504,1.244-1.016,1.999-1.016
		c1.131,0,1.928,0.709,1.928,2.383v2.447c0,0.922,0.097,1.004,0.923,1.074v0.363H230.161z"/>
	<path fill="#135D96" d="M237.454,64.582v-0.363c0.825-0.082,0.92-0.195,0.92-1.158v-2.332c0-0.965-0.333-1.592-1.271-1.592
		c-0.559,0-1.1,0.348-1.52,0.711v3.285c0,0.945,0.083,1.004,0.906,1.086v0.363h-3.029v-0.363c0.95-0.098,1.021-0.168,1.021-1.086
		v-2.896c0-0.891-0.083-0.932-0.842-1.072V58.84c0.673-0.123,1.33-0.289,1.944-0.568v1.117c0.278-0.211,0.585-0.422,0.937-0.66
		c0.387-0.248,0.752-0.414,1.158-0.414c1.101,0,1.798,0.768,1.798,2.119v2.699c0,0.945,0.071,1.004,0.88,1.086v0.363H237.454z"/>
	<path fill="#135D96" d="M246.95,61.426c0,2.246-1.646,3.322-3.027,3.322c-1.917,0-3.057-1.535-3.057-3.084
		c0-2.305,1.784-3.352,3.057-3.352C245.652,58.312,246.95,59.693,246.95,61.426 M242.16,61.217c0,1.76,0.767,3.074,1.915,3.074
		c0.863,0,1.577-0.643,1.577-2.557c0-1.633-0.657-2.959-1.87-2.959C242.915,58.775,242.16,59.641,242.16,61.217"/>
	<path fill="#135D96" d="M247.328,64.582v-0.363c0.879-0.082,1.002-0.168,1.002-1.086v-6.607c0-0.953-0.081-0.99-0.961-1.059v-0.336
		c0.725-0.084,1.593-0.324,2.064-0.49v8.492c0,0.918,0.112,1.004,1.007,1.086v0.363H247.328z"/>
	<path fill="#135D96" d="M256.921,61.426c0,2.246-1.646,3.322-3.028,3.322c-1.91,0-3.06-1.535-3.06-3.084
		c0-2.305,1.792-3.352,3.06-3.352C255.623,58.312,256.921,59.693,256.921,61.426 M252.136,61.217c0,1.76,0.768,3.074,1.91,3.074
		c0.867,0,1.577-0.643,1.577-2.557c0-1.633-0.651-2.959-1.869-2.959C252.889,58.775,252.136,59.641,252.136,61.217"/>
	<path fill="#135D96" d="M263.837,58.578c-0.125,0.221-0.404,0.586-0.629,0.711l-0.793-0.043c0.263,0.309,0.418,0.742,0.418,1.242
		c0,1.508-1.256,2.236-2.444,2.236c-0.237,0-0.491-0.041-0.714-0.068c-0.195,0.123-0.42,0.375-0.42,0.572
		c0,0.277,0.253,0.541,0.883,0.541c0.498,0,1.004-0.01,1.465-0.01c0.866,0,2.011,0.277,2.011,1.645c0,1.41-1.635,2.766-3.493,2.766
		c-1.548,0-2.399-0.906-2.412-1.705c0-0.303,0.125-0.568,0.337-0.779c0.276-0.281,0.82-0.729,1.155-0.979
		c-0.504-0.152-0.85-0.477-1.031-0.77c-0.124-0.209-0.17-0.445-0.153-0.586c0.557-0.207,1.002-0.572,1.225-0.85
		c-0.627-0.266-1.225-0.92-1.225-1.871c0-1.596,1.423-2.318,2.496-2.318c0.476,0,0.938,0.125,1.345,0.352
		c0.683-0.027,1.394-0.113,1.896-0.199L263.837,58.578z M259.451,65.043c-0.362,0.295-0.643,0.684-0.643,1.09
		c0,0.752,0.812,1.328,1.844,1.328c1.326,0,2.014-0.688,2.014-1.551c0-0.479-0.238-0.828-0.646-0.99
		c-0.347-0.141-0.753-0.184-1.343-0.184C260.01,64.736,259.704,64.818,259.451,65.043 M259.213,60.408
		c0,1.088,0.531,1.871,1.311,1.871c0.618-0.016,1.161-0.562,1.161-1.666c0-1.102-0.51-1.885-1.312-1.885
		C259.762,58.729,259.213,59.318,259.213,60.408"/>
	<path fill="#135D96" d="M270.581,58.826c-0.738,0.113-0.868,0.227-1.242,1.021c-0.348,0.74-0.783,1.9-1.745,4.201
		c-0.937,2.238-1.244,3.033-1.438,3.789c-0.071,0.264-0.251,0.332-0.445,0.332c-0.394,0-0.799-0.332-0.799-0.668
		c0-0.225,0.127-0.352,0.364-0.506c0.435-0.277,0.712-0.625,1.031-1.24c0.267-0.488,0.378-0.781,0.433-0.965
		c0.069-0.209,0.069-0.393-0.013-0.629c-0.56-1.59-1.188-3.281-1.604-4.271c-0.295-0.768-0.433-0.951-1.2-1.064v-0.348h2.832v0.348
		c-0.643,0.113-0.71,0.254-0.529,0.77l1.272,3.508c0.386-0.951,0.987-2.6,1.281-3.479c0.169-0.531,0.07-0.686-0.726-0.799v-0.348
		h2.526V58.826z"/>
	<path fill="#135D96" d="M272.217,64.289c0,1.074-0.978,1.676-1.83,1.928l-0.153-0.406c0.669-0.277,1.076-0.645,1.076-1.172
		c0-0.502-0.394-0.826-0.881-0.938c-0.069-0.016-0.169-0.113-0.169-0.35c0-0.348,0.336-0.572,0.673-0.572
		C271.437,62.779,272.217,63.314,272.217,64.289"/>
	<path fill="#135D96" d="M279.918,57.629c-0.265-0.896-0.648-1.857-1.935-1.857c-1.142,0-1.642,0.783-1.642,1.533
		c0,1.021,0.709,1.494,1.879,2.068c1.156,0.559,2.557,1.213,2.557,2.777c0,1.467-1.315,2.641-3.285,2.641
		c-0.605,0-1.077-0.113-1.448-0.209c-0.367-0.127-0.592-0.221-0.726-0.291c-0.116-0.295-0.308-1.496-0.4-2.168l0.432-0.098
		c0.236,0.854,0.902,2.266,2.427,2.266c1.109,0,1.775-0.66,1.775-1.678c0-1.031-0.812-1.521-1.922-2.082
		c-0.951-0.477-2.444-1.172-2.444-2.748c0-1.34,1.145-2.486,3.047-2.486c0.682,0,1.303,0.152,1.865,0.32
		c0.061,0.504,0.134,1.051,0.252,1.926L279.918,57.629z"/>
	<path fill="#135D96" d="M286.946,63.398c-0.879,1.098-1.842,1.35-2.277,1.35c-1.717,0-2.721-1.395-2.721-2.977
		c0-0.961,0.349-1.812,0.923-2.441c0.571-0.641,1.322-1.016,2.052-1.016c1.156,0,2.094,1.031,2.094,2.119
		c0,0.279-0.07,0.393-0.319,0.447c-0.242,0.043-1.987,0.182-3.646,0.24c0.013,1.898,1.101,2.678,2.083,2.678
		c0.556,0,1.085-0.223,1.588-0.697L286.946,63.398z M283.122,60.545c0.78,0,1.547-0.014,2.356-0.041
		c0.252,0,0.337-0.084,0.337-0.277c0.013-0.727-0.463-1.4-1.228-1.4C283.944,58.826,283.33,59.416,283.122,60.545"/>
	<path fill="#135D96" d="M291.77,64.582v-0.363c0.827-0.082,0.921-0.195,0.921-1.158v-2.332c0-0.965-0.331-1.592-1.272-1.592
		c-0.555,0-1.099,0.348-1.518,0.711v3.285c0,0.945,0.082,1.004,0.908,1.086v0.363h-3.031v-0.363c0.949-0.098,1.02-0.168,1.02-1.086
		v-2.896c0-0.891-0.083-0.932-0.838-1.072V58.84c0.669-0.123,1.327-0.289,1.941-0.568v1.117c0.277-0.211,0.585-0.422,0.937-0.66
		c0.388-0.248,0.751-0.414,1.157-0.414c1.101,0,1.799,0.768,1.799,2.119v2.699c0,0.945,0.071,1.004,0.881,1.086v0.363H291.77z"/>
	<path fill="#135D96" d="M302.062,64.219c-0.309,0.055-1.356,0.236-2.166,0.529V63.84l-0.852,0.504
		c-0.544,0.322-0.922,0.404-1.089,0.404c-1.115,0-2.583-1.02-2.583-2.977c0-1.938,1.705-3.457,3.601-3.457
		c0.196,0,0.601,0.039,0.923,0.148v-1.967c0-0.924-0.07-0.961-1.072-1.029v-0.336c0.725-0.102,1.662-0.309,2.175-0.49v8.336
		c0,0.723,0.098,0.795,0.614,0.85l0.449,0.043V64.219z M299.896,59.541c-0.335-0.49-0.906-0.715-1.438-0.715
		c-0.643,0-1.812,0.547-1.812,2.572c0,1.662,1.017,2.471,1.911,2.471c0.503,0,1.004-0.223,1.339-0.473V59.541z"/>
	<path fill="#135D96" d="M307.008,64.748c-0.207,0-0.501-0.123-0.655-0.264c-0.182-0.195-0.269-0.391-0.337-0.631
		c-0.557,0.379-1.229,0.895-1.648,0.895c-0.991,0-1.676-0.824-1.676-1.703c0-0.684,0.363-1.119,1.133-1.381
		c0.837-0.279,1.855-0.656,2.163-0.908v-0.252c0-1.004-0.476-1.58-1.173-1.58c-0.277,0-0.489,0.111-0.63,0.281
		c-0.179,0.184-0.306,0.49-0.418,0.92c-0.055,0.225-0.208,0.324-0.403,0.324c-0.248,0-0.614-0.277-0.614-0.602
		c0-0.207,0.183-0.363,0.447-0.559c0.388-0.277,1.299-0.826,2.095-0.975c0.415,0,0.837,0.123,1.145,0.373
		c0.487,0.406,0.627,0.977,0.627,1.705v2.598c0,0.627,0.248,0.836,0.488,0.836c0.166,0,0.365-0.068,0.503-0.156l0.142,0.365
		L307.008,64.748z M305.987,61.232c-0.295,0.152-0.965,0.445-1.256,0.586c-0.547,0.248-0.853,0.516-0.853,1.02
		c0,0.721,0.56,1.072,0.994,1.072c0.361-0.016,0.849-0.252,1.114-0.5V61.232z"/>
	<path fill="#135D96" d="M308.779,64.582v-0.363c0.88-0.082,0.979-0.168,0.979-1.117v-2.875c0-0.867-0.043-0.922-0.884-1.062v-0.338
		c0.715-0.109,1.37-0.291,1.986-0.543v4.818c0,0.949,0.096,1.035,0.988,1.117v0.363H308.779z M309.521,56.385
		c0-0.418,0.333-0.725,0.71-0.725c0.389,0,0.696,0.307,0.696,0.725c0,0.379-0.308,0.711-0.709,0.711
		C309.854,57.096,309.521,56.764,309.521,56.385"/>
	<path fill="#135D96" d="M322.195,62.279c-0.19,0.641-0.522,1.674-0.764,2.133c-0.378,0.1-1.5,0.379-2.471,0.379
		c-3.336,0-4.799-2.4-4.799-4.619c0-2.938,2.173-4.875,5.16-4.875c1.088,0,2.003,0.305,2.377,0.377
		c0.104,0.795,0.184,1.352,0.267,2.109l-0.4,0.096c-0.35-1.479-1.155-2.08-2.604-2.08c-2.238,0-3.431,1.969-3.431,4.09
		c0,2.613,1.476,4.402,3.516,4.402c1.364,0,2.091-0.771,2.758-2.166L322.195,62.279z"/>
	<path fill="#135D96" d="M329.244,61.426c0,2.246-1.649,3.322-3.03,3.322c-1.913,0-3.058-1.535-3.058-3.084
		c0-2.305,1.786-3.352,3.058-3.352C327.942,58.312,329.244,59.693,329.244,61.426 M324.456,61.217c0,1.76,0.766,3.074,1.91,3.074
		c0.867,0,1.576-0.643,1.576-2.557c0-1.633-0.655-2.959-1.87-2.959C325.205,58.775,324.456,59.641,324.456,61.217"/>
	<path fill="#135D96" d="M329.918,64.582v-0.363c0.879-0.082,1.005-0.168,1.005-1.086v-6.607c0-0.953-0.08-0.99-0.963-1.059v-0.336
		c0.726-0.084,1.592-0.324,2.065-0.49v8.492c0,0.918,0.112,1.004,1.003,1.086v0.363H329.918z"/>
	<path fill="#135D96" d="M333.611,64.582v-0.363c0.879-0.082,1.005-0.168,1.005-1.086v-6.607c0-0.953-0.08-0.99-0.963-1.059v-0.336
		c0.726-0.084,1.591-0.324,2.065-0.49v8.492c0,0.918,0.112,1.004,1.003,1.086v0.363H333.611z"/>
	<path fill="#135D96" d="M342.439,63.398c-0.878,1.098-1.843,1.35-2.273,1.35c-1.717,0-2.724-1.395-2.724-2.977
		c0-0.961,0.349-1.812,0.924-2.441c0.568-0.641,1.323-1.016,2.049-1.016c1.16,0,2.095,1.031,2.095,2.119
		c0,0.279-0.07,0.393-0.32,0.447c-0.24,0.043-1.982,0.182-3.642,0.24c0.013,1.898,1.099,2.678,2.078,2.678
		c0.56,0,1.091-0.223,1.592-0.697L342.439,63.398z M338.618,60.545c0.781,0,1.548-0.014,2.355-0.041
		c0.253,0,0.335-0.084,0.335-0.277c0.013-0.727-0.458-1.4-1.226-1.4C339.441,58.826,338.825,59.416,338.618,60.545"/>
	<path fill="#135D96" d="M349.411,58.578c-0.125,0.221-0.405,0.586-0.63,0.711l-0.796-0.043c0.266,0.309,0.419,0.742,0.419,1.242
		c0,1.508-1.257,2.236-2.438,2.236c-0.24,0-0.492-0.041-0.717-0.068c-0.192,0.123-0.418,0.375-0.418,0.572
		c0,0.277,0.252,0.541,0.882,0.541c0.501,0,1.003-0.01,1.465-0.01c0.864,0,2.011,0.277,2.011,1.645c0,1.41-1.635,2.766-3.491,2.766
		c-1.547,0-2.401-0.906-2.415-1.705c0-0.303,0.125-0.568,0.333-0.779c0.281-0.281,0.828-0.729,1.163-0.979
		c-0.504-0.152-0.853-0.477-1.038-0.77c-0.125-0.209-0.167-0.445-0.151-0.586c0.562-0.207,1.008-0.572,1.231-0.85
		c-0.629-0.266-1.231-0.92-1.231-1.871c0-1.596,1.424-2.318,2.5-2.318c0.477,0,0.934,0.125,1.341,0.352
		c0.683-0.027,1.393-0.113,1.898-0.199L349.411,58.578z M345.028,65.043c-0.361,0.295-0.644,0.684-0.644,1.09
		c0,0.752,0.81,1.328,1.846,1.328c1.323,0,2.008-0.688,2.008-1.551c0-0.479-0.237-0.828-0.643-0.99
		c-0.349-0.141-0.751-0.184-1.341-0.184C345.585,64.736,345.277,64.818,345.028,65.043 M344.792,60.408
		c0,1.088,0.527,1.871,1.312,1.871c0.612-0.016,1.155-0.562,1.155-1.666c0-1.102-0.514-1.885-1.309-1.885
		C345.335,58.729,344.792,59.318,344.792,60.408"/>
	<path fill="#135D96" d="M354.931,63.398c-0.88,1.098-1.849,1.35-2.277,1.35c-1.717,0-2.725-1.395-2.725-2.977
		c0-0.961,0.35-1.812,0.92-2.441c0.574-0.641,1.328-1.016,2.053-1.016c1.164,0,2.099,1.031,2.099,2.119
		c0,0.279-0.069,0.393-0.324,0.447c-0.235,0.043-1.981,0.182-3.645,0.24c0.016,1.898,1.104,2.678,2.082,2.678
		c0.558,0,1.09-0.223,1.593-0.697L354.931,63.398z M351.1,60.545c0.784,0,1.554-0.014,2.359-0.041c0.253,0,0.336-0.084,0.336-0.277
		c0.016-0.727-0.461-1.4-1.229-1.4C351.925,58.826,351.311,59.416,351.1,60.545"/>
</g>
</svg>
